<?xml version="1.0" encoding="UTF-8"?>
<svg version="1.1" xmlns="http://www.w3.org/2000/svg" width="1920" height="544">
<path d="M0 0 C633.6 0 1267.2 0 1920 0 C1920 179.52 1920 359.04 1920 544 C1286.4 544 652.8 544 0 544 C0 364.48 0 184.96 0 0 Z " fill="#FDFEFD" transform="translate(0,0)"/>
<path d="M0 0 C37.62 0 75.24 0 114 0 C114 12.21 114 24.42 114 37 C88.59 37 63.18 37 37 37 C37 50.2 37 63.4 37 77 C62.41 77 87.82 77 114 77 C114 89.21 114 101.42 114 114 C88.92 114 63.84 114 38 114 C38 126.87 38 139.74 38 153 C25.46 153 12.92 153 0 153 C0 102.51 0 52.02 0 0 Z " fill="#09090A" transform="translate(334,180)"/>
<path d="M0 0 C6.6 0 13.2 0 20 0 C20 12.21 20 24.42 20 37 C38.81 37 57.62 37 77 37 C77 43.27 77 49.54 77 56 C82.87883003 55.96042231 82.87883003 55.96042231 88.75756836 55.90991211 C89.48596924 55.90741455 90.21437012 55.90491699 90.96484375 55.90234375 C91.7137085 55.89710693 92.46257324 55.89187012 93.23413086 55.88647461 C95 56 95 56 96 57 C96.09498646 59.43396019 96.12558417 61.83942952 96.11352539 64.27368164 C96.11367142 65.03460617 96.11381744 65.7955307 96.1139679 66.57951355 C96.11326862 69.10642298 96.10547555 71.63325962 96.09765625 74.16015625 C96.09579212 75.9075059 96.0943682 77.65485607 96.09336853 79.40220642 C96.08954293 84.01031934 96.07971229 88.61840095 96.06866455 93.22650146 C96.05845134 97.92508521 96.0538711 102.62367399 96.04882812 107.32226562 C96.03809005 116.54819308 96.02049292 125.77408904 96 135 C89.4 135 82.8 135 76 135 C76 141.6 76 148.2 76 155 C50.92 155 25.84 155 0 155 C0 103.85 0 52.7 0 0 Z " fill="#F3F3F3" transform="translate(708,179)"/>
<path d="M0 0 C6.6 0 13.2 0 20 0 C20 51.48 20 102.96 20 156 C-4.75 156 -29.5 156 -55 156 C-55 149.4 -55 142.8 -55 136 C-61.6 136 -68.2 136 -75 136 C-75 110.26 -75 84.52 -75 58 C-68.4 58 -61.8 58 -55 58 C-55 51.4 -55 44.8 -55 38 C-36.85 38 -18.7 38 0 38 C0 25.46 0 12.92 0 0 Z " fill="#FAFAFA" transform="translate(897,178)"/>
<path d="M0 0 C12.21 0 24.42 0 37 0 C37 12.87 37 25.74 37 39 C58.45 39 79.9 39 102 39 C102 26.13 102 13.26 102 0 C114.21 0 126.42 0 139 0 C139 37.62 139 75.24 139 114 C127.12 114 115.24 114 103 114 C102.67 101.79 102.34 89.58 102 77 C80.55 76.67 59.1 76.34 37 76 C37 88.87 37 101.74 37 115 C24.79 115 12.58 115 0 115 C0 77.05 0 39.1 0 0 Z " fill="#090909" transform="translate(153,218)"/>
<path d="M0 0 C26.4 0 52.8 0 80 0 C80 38.94 80 77.88 80 118 C73.4 118 66.8 118 60 118 C60 111.4 60 104.8 60 98 C53.73 98 47.46 98 41 98 C41 104.6 41 111.2 41 118 C27.47 118 13.94 118 0 118 C0 111.4 0 104.8 0 98 C-6.27 98 -12.54 98 -19 98 C-19 72.26 -19 46.52 -19 20 C-12.73 20 -6.46 20 0 20 C0 13.4 0 6.8 0 0 Z " fill="#F3F3F3" transform="translate(1507,216)"/>
<path d="M0 0 C7.81453214 -0.02463956 15.62904188 -0.04283105 23.44360352 -0.05493164 C26.10441481 -0.05997383 28.76522332 -0.06680736 31.42602539 -0.07543945 C35.24105516 -0.08751009 39.05604844 -0.09322929 42.87109375 -0.09765625 C44.66793861 -0.10539818 44.66793861 -0.10539818 46.50108337 -0.11329651 C48.15268211 -0.11340981 48.15268211 -0.11340981 49.83764648 -0.11352539 C50.81249496 -0.115746 51.78734344 -0.11796661 52.79173279 -0.12025452 C55 0 55 0 56 1 C56.08651611 2.41570123 56.10704904 3.835595 56.09765625 5.25390625 C56.09515869 6.0229126 56.09266113 6.79191895 56.09008789 7.58422852 C56.08098389 8.56705811 56.07187988 9.5498877 56.0625 10.5625 C56.041875 13.676875 56.02125 16.79125 56 20 C62.27 20 68.54 20 75 20 C75 33.2 75 46.4 75 60 C50.58 60 26.16 60 1 60 C1 72.54 1 85.08 1 98 C25.42 98 49.84 98 75 98 C75 104.6 75 111.2 75 118 C50.25 118 25.5 118 0 118 C0 111.4 0 104.8 0 98 C-6.27 98 -12.54 98 -19 98 C-19 72.26 -19 46.52 -19 20 C-12.73 20 -6.46 20 0 20 C0 13.4 0 6.8 0 0 Z " fill="#28282A" transform="translate(1232,216)"/>
<path d="M0 0 C6.6 0 13.2 0 20 0 C20 12.21 20 24.42 20 37 C33.86 37 47.72 37 62 37 C62 43.6 62 50.2 62 57 C68.27 57 74.54 57 81 57 C81 50.4 81 43.8 81 37 C94.86 37 108.72 37 123 37 C123 43.6 123 50.2 123 57 C109.47 57 95.94 57 82 57 C82 89.34 82 121.68 82 155 C75.4 155 68.8 155 62 155 C60.08935701 153.08935701 60.87985389 150.26172105 60.87557983 147.71983337 C60.88097275 146.36469383 60.88097275 146.36469383 60.88647461 144.98217773 C60.88632858 144.03593536 60.88618256 143.08969299 60.8860321 142.11477661 C60.88673164 138.97102608 60.89452591 135.82733399 60.90234375 132.68359375 C60.90420779 130.51025932 60.90563176 128.33692448 60.90663147 126.16358948 C60.91045779 120.43098805 60.92028903 114.69841177 60.93133545 108.96582031 C60.94154713 103.12109721 60.94612857 97.27637007 60.95117188 91.43164062 C60.9619112 79.95441423 60.97950892 68.47721314 61 57 C47.47 57 33.94 57 20 57 C20 89.34 20 121.68 20 155 C13.4 155 6.8 155 0 155 C0 103.85 0 52.7 0 0 Z " fill="#080809" transform="translate(1326,179)"/>
<path d="M0 0 C6.93 0 13.86 0 21 0 C21 6.27 21 12.54 21 19 C26.87883003 18.96042231 26.87883003 18.96042231 32.75756836 18.90991211 C33.48596924 18.90741455 34.21437012 18.90491699 34.96484375 18.90234375 C35.7137085 18.89710693 36.46257324 18.89187012 37.23413086 18.88647461 C39 19 39 19 40 20 C40.08651611 21.41570123 40.10704904 22.835595 40.09765625 24.25390625 C40.09515869 25.0229126 40.09266113 25.79191895 40.09008789 26.58422852 C40.08098389 27.56705811 40.07187988 28.5498877 40.0625 29.5625 C40.041875 32.676875 40.02125 35.79125 40 39 C46.27 39 52.54 39 59 39 C59 77.61 59 116.22 59 156 C52.4 156 45.8 156 39 156 C39 136.53 39 117.06 39 97 C19.53 97 0.06 97 -20 97 C-20 116.14 -20 135.28 -20 155 C-25.94 155 -31.88 155 -38 155 C-38 116.72 -38 78.44 -38 39 C-32.06 39 -26.12 39 -20 39 C-20 52.2 -20 65.4 -20 79 C-0.53 79 18.94 79 39 79 C39 65.8 39 52.6 39 39 C32.73 39 26.46 39 20 39 C19 38 19 38 18.90234375 34.18359375 C18.90808862 32.60152953 18.92110407 31.01948969 18.9375 29.4375 C18.958125 26.653125 18.97875 23.86875 19 21 C13.06 21 7.12 21 1 21 C1 26.94 1 32.88 1 39 C-5.6 39 -12.2 39 -19 39 C-19 32.4 -19 25.8 -19 19 C-12.73 19 -6.46 19 0 19 C0 12.73 0 6.46 0 0 Z " fill="#0B0B0D" transform="translate(630,178)"/>
<path d="M0 0 C27.72 0 55.44 0 84 0 C84 5.94 84 11.88 84 18 C62.22 18 40.44 18 18 18 C18 31.2 18 44.4 18 58 C40.11 58 62.22 58 85 58 C85 45.13 85 32.26 85 19 C90.94 19 96.88 19 103 19 C103 37.81 103 56.62 103 76 C90.46 76 77.92 76 65 76 C65 82.27 65 88.54 65 95 C58.73 95 52.46 95 46 95 C46 88.73 46 82.46 46 76 C36.76 76 27.52 76 18 76 C18 101.41 18 126.82 18 153 C12.06 153 6.12 153 0 153 C0 102.51 0 52.02 0 0 Z " fill="#090A0B" transform="translate(1090,180)"/>
<path d="M0 0 C37.95 0 75.9 0 115 0 C115 12.54 115 25.08 115 38 C127.54 38 140.08 38 153 38 C153 51.2 153 64.4 153 78 C140.46 78 127.92 78 115 78 C115 90.21 115 102.42 115 115 C127.21 115 139.42 115 152 115 C152 128.2 152 141.4 152 155 C139.46 155 126.92 155 114 155 C114 142.13 114 129.26 114 116 C88.92 116 63.84 116 38 116 C38 115.67 38 115.34 38 115 C63.08 115 88.16 115 114 115 C114 102.79 114 90.58 114 78 C88.59 78 63.18 78 37 78 C37 64.8 37 51.6 37 38 C62.41 38 87.82 38 114 38 C114 25.79 114 13.58 114 1 C76.38 1 38.76 1 0 1 C0 0.67 0 0.34 0 0 Z " fill="#FDFDFD" transform="translate(334,179)"/>
<path d="M0 0 C21.45 0 42.9 0 65 0 C65 12.54 65 25.08 65 38 C77.46083695 37.96039654 77.46083695 37.96039654 89.92163086 37.90991211 C91.47770113 37.90699295 93.03377216 37.90444439 94.58984375 37.90234375 C95.40521606 37.89722778 96.22058838 37.89211182 97.06066895 37.88684082 C99.04080523 37.8865306 101.02084654 37.93761904 103 38 C104.597485 39.597485 104.125997 41.26591634 104.12698364 43.47937012 C104.12980347 44.44692734 104.13262329 45.41448456 104.13552856 46.41136169 C104.13249222 48.01661461 104.13249222 48.01661461 104.12939453 49.65429688 C104.13202301 51.3345974 104.13202301 51.3345974 104.13470459 53.04884338 C104.13912577 56.77216109 104.13618417 60.49543176 104.1328125 64.21875 C104.13348546 66.79325367 104.13445542 69.36775729 104.13571167 71.94226074 C104.137189 77.34611675 104.13512754 82.7499549 104.13037109 88.15380859 C104.1249285 94.40961472 104.12669117 100.66538826 104.1321975 106.9211936 C104.13727434 112.9285105 104.13674708 118.9358114 104.13381577 124.94313049 C104.13314623 127.50452173 104.13397584 130.0659138 104.13629532 132.62730408 C104.13882027 136.20012653 104.13498346 139.77288543 104.12939453 143.34570312 C104.13141876 144.41587173 104.13344299 145.48604034 104.13552856 146.58863831 C104.13270874 147.55619553 104.12988892 148.52375275 104.12698364 149.52062988 C104.1264181 150.78937328 104.1264181 150.78937328 104.12584114 152.08374786 C104 154 104 154 103 155 C100.20006403 155.10103255 97.42531356 155.13970088 94.625 155.1328125 C93.78533691 155.13376923 92.94567383 155.13472595 92.08056641 155.13571167 C90.30175705 155.13639348 88.52294523 155.13453917 86.74414062 155.13037109 C84.01166224 155.12502283 81.27934824 155.13031605 78.546875 155.13671875 C76.8229163 155.13605797 75.09895771 155.13477681 73.375 155.1328125 C72.55209473 155.13483673 71.72918945 155.13686096 70.88134766 155.13894653 C65.11495054 155.11495054 65.11495054 155.11495054 64 154 C63.9113874 151.18859849 63.88470416 148.40120576 63.90234375 145.58984375 C63.90335083 144.84383911 63.90435791 144.09783447 63.90539551 143.32922363 C63.91064311 140.53196687 63.92460427 137.73473196 63.9375 134.9375 C63.958125 128.688125 63.97875 122.43875 64 116 C43.21 116 22.42 116 1 116 C1.03960346 128.46083695 1.03960346 128.46083695 1.09008789 140.92163086 C1.09300705 142.47770113 1.09555561 144.03377216 1.09765625 145.58984375 C1.10277222 146.40521606 1.10788818 147.22058838 1.11315918 148.06066895 C1.1134694 150.04080523 1.06238096 152.02084654 1 154 C0.67 154.33 0.34 154.66 0 155 C-12.54 155 -25.08 155 -38 155 C-38 116.39 -38 77.78 -38 38 C-25.46 38 -12.92 38 0 38 C0 25.46 0 12.92 0 0 Z M-37 39 C-37 76.95 -37 114.9 -37 154 C-24.79 154 -12.58 154 0 154 C0 141.13 0 128.26 0 115 C32.175 115.495 32.175 115.495 65 116 C65.33 128.21 65.66 140.42 66 153 C77.88 153 89.76 153 102 153 C102 115.38 102 77.76 102 39 C89.79 39 77.58 39 65 39 C65 51.87 65 64.74 65 78 C43.55 78 22.1 78 0 78 C0 65.13 0 52.26 0 39 C-12.21 39 -24.42 39 -37 39 Z " fill="#090A0A" transform="translate(190,179)"/>
<path d="M0 0 C6.6 0 13.2 0 20 0 C20 38.94 20 77.88 20 118 C13.4 118 6.8 118 0 118 C0 111.4 0 104.8 0 98 C-5.94 98 -11.88 98 -18 98 C-18 104.6 -18 111.2 -18 118 C-23.39352589 118.02290785 -28.78688421 118.04283526 -34.18041992 118.05493164 C-36.01668875 118.05997231 -37.85295354 118.06680477 -39.68920898 118.07543945 C-42.32276401 118.08751672 -44.95626616 118.09323081 -47.58984375 118.09765625 C-48.82890724 118.10539818 -48.82890724 118.10539818 -50.09300232 118.11329651 C-52.06236368 118.11349205 -54.03161614 118.06204152 -56 118 C-57 117 -57 117 -57.11352539 115.14233398 C-57.10828857 114.35157471 -57.10305176 113.56081543 -57.09765625 112.74609375 C-57.09515869 111.9770874 -57.09266113 111.20808105 -57.09008789 110.41577148 C-57.08098389 109.43294189 -57.07187988 108.4501123 -57.0625 107.4375 C-57.041875 104.323125 -57.02125 101.20875 -57 98 C-63.6 98 -70.2 98 -77 98 C-77 65.99 -77 33.98 -77 1 C-70.07 1 -63.14 1 -56 1 C-56 32.68 -56 64.36 -56 97 C-44.12 97 -32.24 97 -20 97 C-20 90.73 -20 84.46 -20 78 C-13.4 78 -6.8 78 0 78 C0 52.26 0 26.52 0 0 Z " fill="#09090A" transform="translate(1012,216)"/>
<path d="M0 0 C26.4 0 52.8 0 80 0 C80 6.27 80 12.54 80 19 C85.87883003 18.96042231 85.87883003 18.96042231 91.75756836 18.90991211 C92.48596924 18.90741455 93.21437012 18.90491699 93.96484375 18.90234375 C94.7137085 18.89710693 95.46257324 18.89187012 96.23413086 18.88647461 C98 19 98 19 99 20 C99.09530981 23.04402422 99.12551639 26.06531708 99.11352539 29.10961914 C99.11367142 30.06561508 99.11381744 31.02161102 99.1139679 32.00657654 C99.11326835 35.18279245 99.10547403 38.35895052 99.09765625 41.53515625 C99.09579222 43.73091093 99.09436825 45.92666602 99.09336853 48.12242126 C99.08954219 53.91420633 99.07971091 59.7059665 99.06866455 65.4977417 C99.05845293 71.40278791 99.05387145 77.30783813 99.04882812 83.21289062 C99.03808874 94.80860648 99.02049101 106.40429728 99 118 C92.4 118 85.8 118 79 118 C79 85.66 79 53.32 79 20 C59.53 20 40.06 20 20 20 C20 52.34 20 84.68 20 118 C13.4 118 6.8 118 0 118 C0 79.06 0 40.12 0 0 Z " fill="#1A191B" transform="translate(1605,216)"/>
<path d="M0 0 C6.6 0 13.2 0 20 0 C20 51.48 20 102.96 20 156 C-4.75 156 -29.5 156 -55 156 C-55 149.4 -55 142.8 -55 136 C-36.52 136 -18.04 136 1 136 C1 110.26 1 84.52 1 58 C-17.48 58 -35.96 58 -55 58 C-55 51.4 -55 44.8 -55 38 C-36.85 38 -18.7 38 0 38 C0 25.46 0 12.92 0 0 Z " fill="#111213" transform="translate(897,178)"/>
<path d="M0 0 C6.27 0 12.54 0 19 0 C19 12.54 19 25.08 19 38 C37.81 38 56.62 38 76 38 C76 44.27 76 50.54 76 57 C57.19 57 38.38 57 19 57 C19 82.74 19 108.48 19 135 C37.81 135 56.62 135 76 135 C76 141.6 76 148.2 76 155 C50.92 155 25.84 155 0 155 C0 103.85 0 52.7 0 0 Z " fill="#0F0F11" transform="translate(708,179)"/>
<path d="M0 0 C0.78964645 0.00202423 1.57929291 0.00404846 2.39286804 0.00613403 C3.63425789 0.00350555 3.63425789 0.00350555 4.90072632 0.00082397 C7.65008104 -0.00359537 10.39937199 -0.00065627 13.14872742 0.00271606 C15.0506237 0.00204305 16.9525199 0.00107304 18.85441589 -0.00018311 C22.84591997 -0.00166019 26.83740171 0.00049482 30.8289032 0.00515747 C35.95738248 0.01085476 41.08580944 0.00757582 46.2142868 0.00158501 C50.14321795 -0.00202032 54.0721366 -0.00088215 58.00106812 0.0017128 C59.89259853 0.00238215 61.78413007 0.00155338 63.67565918 -0.00076675 C66.31449918 -0.00329282 68.95325323 0.00054665 71.59208679 0.00613403 C72.77655647 0.00309769 72.77655647 0.00309769 73.98495483 0 C79.3782149 0.02126605 79.3782149 0.02126605 80.49247742 1.13552856 C80.57879616 2.47820269 80.59954215 3.82527178 80.59013367 5.17068481 C80.58763611 5.89908569 80.58513855 6.62748657 80.58256531 7.37796021 C80.5734613 8.30858276 80.5643573 9.23920532 80.55497742 10.19802856 C80.53435242 13.14740356 80.51372742 16.09677856 80.49247742 19.13552856 C87.09247742 19.13552856 93.69247742 19.13552856 100.49247742 19.13552856 C100.49247742 38.93552856 100.49247742 58.73552856 100.49247742 79.13552856 C87.62247742 79.13552856 74.75247742 79.13552856 61.49247742 79.13552856 C61.49247742 85.07552856 61.49247742 91.01552856 61.49247742 97.13552856 C67.76247742 97.13552856 74.03247742 97.13552856 80.49247742 97.13552856 C80.49247742 103.73552856 80.49247742 110.33552856 80.49247742 117.13552856 C86.76247742 117.13552856 93.03247742 117.13552856 99.49247742 117.13552856 C99.49247742 130.00552856 99.49247742 142.87552856 99.49247742 156.13552856 C92.89247742 156.13552856 86.29247742 156.13552856 79.49247742 156.13552856 C79.49247742 143.26552856 79.49247742 130.39552856 79.49247742 117.13552856 C72.89247742 117.13552856 66.29247742 117.13552856 59.49247742 117.13552856 C59.49247742 110.86552856 59.49247742 104.59552856 59.49247742 98.13552856 C53.22247742 98.13552856 46.95247742 98.13552856 40.49247742 98.13552856 C40.49247742 91.86552856 40.49247742 85.59552856 40.49247742 79.13552856 C31.91247742 79.13552856 23.33247742 79.13552856 14.49247742 79.13552856 C14.49247742 104.54552856 14.49247742 129.95552856 14.49247742 156.13552856 C7.89247742 156.13552856 1.29247742 156.13552856 -5.50752258 156.13552856 C-7.30849089 154.33456026 -6.63369872 151.60311879 -6.63450623 149.17556763 C-6.63732605 147.8798584 -6.64014587 146.58414917 -6.64305115 145.24917603 C-6.64110655 143.79983507 -6.63905836 142.35049425 -6.63691711 140.90115356 C-6.63827109 139.38540607 -6.64005101 137.8696589 -6.64222717 136.35391235 C-6.6468019 132.22592875 -6.64501179 128.09797002 -6.64184809 123.96998596 C-6.63932469 119.65960623 -6.64166197 115.34922869 -6.64323425 111.03884888 C-6.64505601 103.79893611 -6.64264949 96.55903353 -6.63789368 89.31912231 C-6.63245104 80.93658761 -6.6342137 72.55407723 -6.63972008 64.17154312 C-6.64425105 56.98770056 -6.64490184 49.80386535 -6.64228141 42.62002182 C-6.64071855 38.32363232 -6.64052513 34.02725426 -6.6438179 29.73086548 C-6.64669638 25.6926204 -6.64472137 21.65440682 -6.63892365 17.61616516 C-6.63759592 16.12980705 -6.63799038 14.64344631 -6.64018631 13.15708923 C-6.64289729 11.13655692 -6.63890346 9.11601885 -6.63450623 7.0954895 C-6.6341292 5.96206116 -6.63375217 4.82863281 -6.63336372 3.66085815 C-6.40172546 -0.98756577 -4.09052704 0.01612927 0 0 Z M-4.50752258 2.13552856 C-4.50752258 52.62552856 -4.50752258 103.11552856 -4.50752258 155.13552856 C1.43247742 155.13552856 7.37247742 155.13552856 13.49247742 155.13552856 C13.49247742 129.72552856 13.49247742 104.31552856 13.49247742 78.13552856 C22.73247742 78.13552856 31.97247742 78.13552856 41.49247742 78.13552856 C41.49247742 84.40552856 41.49247742 90.67552856 41.49247742 97.13552856 C47.76247742 97.13552856 54.03247742 97.13552856 60.49247742 97.13552856 C60.49247742 90.86552856 60.49247742 84.59552856 60.49247742 78.13552856 C73.03247742 78.13552856 85.57247742 78.13552856 98.49247742 78.13552856 C98.49247742 59.32552856 98.49247742 40.51552856 98.49247742 21.13552856 C92.55247742 21.13552856 86.61247742 21.13552856 80.49247742 21.13552856 C80.49247742 34.00552856 80.49247742 46.87552856 80.49247742 60.13552856 C58.38247742 60.13552856 36.27247742 60.13552856 13.49247742 60.13552856 C13.49247742 46.93552856 13.49247742 33.73552856 13.49247742 20.13552856 C35.27247742 20.13552856 57.05247742 20.13552856 79.49247742 20.13552856 C79.49247742 14.19552856 79.49247742 8.25552856 79.49247742 2.13552856 C51.77247742 2.13552856 24.05247742 2.13552856 -4.50752258 2.13552856 Z " fill="#868787" transform="translate(1094.5075225830078,177.86447143554688)"/>
<path d="M0 0 C25.74 0 51.48 0 78 0 C78 38.28 78 76.56 78 116 C71.73 116 65.46 116 59 116 C59 109.73 59 103.46 59 97 C52.73 97 46.46 97 40 97 C40 90.73 40 84.46 40 78 C46.27 78 52.54 78 59 78 C59 58.53 59 39.06 59 19 C39.53 19 20.06 19 0 19 C0 12.73 0 6.46 0 0 Z " fill="#0B0C0D" transform="translate(1508,217)"/>
<path d="M0 0 C6.6 0 13.2 0 20 0 C20 12.21 20 24.42 20 37 C33.86 37 47.72 37 62 37 C62 43.6 62 50.2 62 57 C68.27 57 74.54 57 81 57 C81 50.4 81 43.8 81 37 C94.86 37 108.72 37 123 37 C123 43.6 123 50.2 123 57 C109.47 57 95.94 57 82 57 C82 89.34 82 121.68 82 155 C75.4 155 68.8 155 62 155 C60.08935701 153.08935701 60.87985389 150.26172105 60.87557983 147.71983337 C60.88097275 146.36469383 60.88097275 146.36469383 60.88647461 144.98217773 C60.88632858 144.03593536 60.88618256 143.08969299 60.8860321 142.11477661 C60.88673164 138.97102608 60.89452591 135.82733399 60.90234375 132.68359375 C60.90420779 130.51025932 60.90563176 128.33692448 60.90663147 126.16358948 C60.91045779 120.43098805 60.92028903 114.69841177 60.93133545 108.96582031 C60.94154713 103.12109721 60.94612857 97.27637007 60.95117188 91.43164062 C60.9619112 79.95441423 60.97950892 68.47721314 61 57 C47.47 57 33.94 57 20 57 C20 89.34 20 121.68 20 155 C13.4 155 6.8 155 0 155 C0 103.85 0 52.7 0 0 Z M1 1 C1 51.16 1 101.32 1 153 C6.94 153 12.88 153 19 153 C19 120.99 19 88.98 19 56 C32.86 56 46.72 56 61 56 C61 50.06 61 44.12 61 38 C47.14 38 33.28 38 19 38 C19 25.79 19 13.58 19 1 C13.06 1 7.12 1 1 1 Z " fill="#2C2C2E" transform="translate(1326,179)"/>
<path d="M0 0 C6.27 0 12.54 0 19 0 C19 6.93 19 13.86 19 21 C46.225 20.505 46.225 20.505 74 20 C74.33 13.73 74.66 7.46 75 1 C80.94 1 86.88 1 93 1 C93 13.54 93 26.08 93 39 C68.58 39 44.16 39 19 39 C19 51.87 19 64.74 19 78 C12.73 78 6.46 78 0 78 C0 52.26 0 26.52 0 0 Z " fill="#09090A" transform="translate(1213,236)"/>
<path d="M0 0 C0.33 0 0.66 0 1 0 C1 6.27 1 12.54 1 19 C7.6 19 14.2 19 21 19 C21 13.06 21 7.12 21 1 C26.94 1 32.88 1 39 1 C39.495 9.415 39.495 9.415 40 18 C46.27 18.33 52.54 18.66 59 19 C59 32.2 59 45.4 59 59 C39.53 59 20.06 59 0 59 C0 45.8 0 32.6 0 19 C-5.94 19 -11.88 19 -18 19 C-18 57.28 -18 95.56 -18 135 C-12.06 135 -6.12 135 0 135 C0 115.86 0 96.72 0 77 C19.47 77 38.94 77 59 77 C59 77.33 59 77.66 59 78 C40.19 78 21.38 78 2 78 C2 97.14 2 116.28 2 136 C-5.26 136 -12.52 136 -20 136 C-20.02254755 120.76236668 -20.04097948 105.52474084 -20.05181217 90.28709507 C-20.056975 83.21246813 -20.06401744 76.13785226 -20.07543945 69.06323242 C-20.08644681 62.24221122 -20.09227618 55.42120156 -20.09487724 48.60017204 C-20.09673205 45.99133052 -20.1003537 43.38248967 -20.10573006 40.77365303 C-20.11293643 37.13367448 -20.11399111 33.49374425 -20.11352539 29.85375977 C-20.11712067 28.76331863 -20.12071594 27.6728775 -20.12442017 26.5493927 C-20.1230455 25.56356201 -20.12167084 24.57773132 -20.12025452 23.56202698 C-20.12117631 22.70015054 -20.1220981 21.8382741 -20.12304783 20.95028019 C-20 19 -20 19 -19 18 C-17.58429877 17.91348389 -16.164405 17.89295096 -14.74609375 17.90234375 C-13.46508789 17.90717773 -13.46508789 17.90717773 -12.15820312 17.91210938 C-11.26037109 17.92048828 -10.36253906 17.92886719 -9.4375 17.9375 C-8.53580078 17.94201172 -7.63410156 17.94652344 -6.70507812 17.95117188 C-4.47002411 17.96299756 -2.23500398 17.98093362 0 18 C0 12.06 0 6.12 0 0 Z " fill="#E9E9E9" transform="translate(610,198)"/>
<path d="M0 0 C6.27 0 12.54 0 19 0 C19 51.15 19 102.3 19 155 C12.73 155 6.46 155 0 155 C0 103.85 0 52.7 0 0 Z " fill="#0E0E0E" transform="translate(1051,178)"/>
<path d="M0 0 C20.79 0 41.58 0 63 0 C63 12.54 63 25.08 63 38 C42.21 38 21.42 38 0 38 C0 25.46 0 12.92 0 0 Z " fill="#FDFDFD" transform="translate(191,218)"/>
<path d="M0 0 C21.12 0 42.24 0 64 0 C64 12.21 64 24.42 64 37 C42.88 37 21.76 37 0 37 C0 24.79 0 12.58 0 0 Z " fill="#FEFEFD" transform="translate(1109,199)"/>
<path d="M0 0 C6.6 0 13.2 0 20 0 C20 32.34 20 64.68 20 98 C13.4 98 6.8 98 0 98 C0 65.66 0 33.32 0 0 Z " fill="#070708" transform="translate(1449,236)"/>
<path d="M0 0 C5.94 0 11.88 0 18 0 C18 32.01 18 64.02 18 97 C12.06 97 6.12 97 0 97 C0 64.99 0 32.98 0 0 Z " fill="#09090B" transform="translate(1685,236)"/>
<path d="M0 0 C5.94 0 11.88 0 18 0 C18 31.68 18 63.36 18 96 C12.06 96 6.12 96 0 96 C0 64.32 0 32.64 0 0 Z " fill="#09090A" transform="translate(937,217)"/>
<path d="M0 0 C6.6 0 13.2 0 20 0 C20 25.74 20 51.48 20 78 C13.4 78 6.8 78 0 78 C0 52.26 0 26.52 0 0 Z " fill="#141415" transform="translate(822,236)"/>
<path d="M0 0 C6.6 0 13.2 0 20 0 C20 38.94 20 77.88 20 118 C13.4 118 6.8 118 0 118 C0 111.4 0 104.8 0 98 C-5.94 98 -11.88 98 -18 98 C-18 104.6 -18 111.2 -18 118 C-23.39352589 118.02290785 -28.78688421 118.04283526 -34.18041992 118.05493164 C-36.01668875 118.05997231 -37.85295354 118.06680477 -39.68920898 118.07543945 C-42.32276401 118.08751672 -44.95626616 118.09323081 -47.58984375 118.09765625 C-48.82890724 118.10539818 -48.82890724 118.10539818 -50.09300232 118.11329651 C-52.06236368 118.11349205 -54.03161614 118.06204152 -56 118 C-57 117 -57 117 -57.11352539 115.14233398 C-57.10828857 114.35157471 -57.10305176 113.56081543 -57.09765625 112.74609375 C-57.09515869 111.9770874 -57.09266113 111.20808105 -57.09008789 110.41577148 C-57.08098389 109.43294189 -57.07187988 108.4501123 -57.0625 107.4375 C-57.041875 104.323125 -57.02125 101.20875 -57 98 C-63.6 98 -70.2 98 -77 98 C-77 65.99 -77 33.98 -77 1 C-76.34 1 -75.68 1 -75 1 C-75 32.68 -75 64.36 -75 97 C-69.06 97 -63.12 97 -57 97 C-57 65.32 -57 33.64 -57 1 C-56.67 1 -56.34 1 -56 1 C-56 32.68 -56 64.36 -56 97 C-44.12 97 -32.24 97 -20 97 C-20 90.73 -20 84.46 -20 78 C-13.4 78 -6.8 78 0 78 C0 52.26 0 26.52 0 0 Z M1 1 C1 26.74 1 52.48 1 79 C-5.27 79 -11.54 79 -18 79 C-18 84.94 -18 90.88 -18 97 C-11.73 97.33 -5.46 97.66 1 98 C1.33 103.94 1.66 109.88 2 116 C7.61 116 13.22 116 19 116 C19 78.05 19 40.1 19 1 C13.06 1 7.12 1 1 1 Z " fill="#68696B" transform="translate(1012,216)"/>
<path d="M0 0 C6.27 0 12.54 0 19 0 C19 25.74 19 51.48 19 78 C12.73 78 6.46 78 0 78 C0 52.26 0 26.52 0 0 Z " fill="#0B0B0C" transform="translate(1488,236)"/>
<path d="M0 0 C12.21 0 24.42 0 37 0 C37 12.54 37 25.08 37 38 C24.79 38 12.58 38 0 38 C0 25.46 0 12.92 0 0 Z " fill="#0B0B0D" transform="translate(449,295)"/>
<path d="M0 0 C12.21 0 24.42 0 37 0 C37 12.54 37 25.08 37 38 C24.79 38 12.58 38 0 38 C0 25.46 0 12.92 0 0 Z " fill="#09090A" transform="translate(449,218)"/>
<path d="M0 0 C5.94 0 11.88 0 18 0 C18 25.41 18 50.82 18 77 C12.06 77 6.12 77 0 77 C0 51.59 0 26.18 0 0 Z " fill="#080809" transform="translate(785,236)"/>
<path d="M0 0 C6.93 0 13.86 0 21 0 C21 6.27 21 12.54 21 19 C26.87883003 18.96042231 26.87883003 18.96042231 32.75756836 18.90991211 C33.48596924 18.90741455 34.21437012 18.90491699 34.96484375 18.90234375 C35.7137085 18.89710693 36.46257324 18.89187012 37.23413086 18.88647461 C39 19 39 19 40 20 C40.09376053 21.81055025 40.1174411 23.62477201 40.11352539 25.43774414 C40.11344986 26.59887222 40.11337433 27.76000031 40.11329651 28.95631409 C40.10813522 30.219832 40.10297394 31.48334991 40.09765625 32.78515625 C40.0962413 34.07111191 40.09482635 35.35706757 40.09336853 36.68199158 C40.08954418 40.10643443 40.07971462 43.53083509 40.06866455 46.95526123 C40.05844864 50.44738189 40.05387053 53.93950934 40.04882812 57.43164062 C40.03809227 64.28777778 40.02101684 71.14388687 40 78 C39.67 78 39.34 78 39 78 C39 65.13 39 52.26 39 39 C32.73 39 26.46 39 20 39 C19 38 19 38 18.90234375 34.18359375 C18.90808862 32.60152953 18.92110407 31.01948969 18.9375 29.4375 C18.958125 26.653125 18.97875 23.86875 19 21 C13.06 21 7.12 21 1 21 C1 26.94 1 32.88 1 39 C-5.6 39 -12.2 39 -19 39 C-19 32.4 -19 25.8 -19 19 C-12.73 19 -6.46 19 0 19 C0 12.73 0 6.46 0 0 Z " fill="#111112" transform="translate(630,178)"/>
<path d="M0 0 C17.82 0 35.64 0 54 0 C54 6.6 54 13.2 54 20 C36.18 20 18.36 20 0 20 C0 13.4 0 6.8 0 0 Z " fill="#FAFAF9" transform="translate(1233,236)"/>
<path d="M0 0 C21.45 0 42.9 0 65 0 C65 12.54 65 25.08 65 38 C77.46083695 37.96039654 77.46083695 37.96039654 89.92163086 37.90991211 C91.47770113 37.90699295 93.03377216 37.90444439 94.58984375 37.90234375 C95.40521606 37.89722778 96.22058838 37.89211182 97.06066895 37.88684082 C99.04080523 37.8865306 101.02084654 37.93761904 103 38 C104.597485 39.597485 104.125997 41.26591634 104.12698364 43.47937012 C104.12980347 44.44692734 104.13262329 45.41448456 104.13552856 46.41136169 C104.13249222 48.01661461 104.13249222 48.01661461 104.12939453 49.65429688 C104.13202301 51.3345974 104.13202301 51.3345974 104.13470459 53.04884338 C104.13912577 56.77216109 104.13618417 60.49543176 104.1328125 64.21875 C104.13348546 66.79325367 104.13445542 69.36775729 104.13571167 71.94226074 C104.137189 77.34611675 104.13512754 82.7499549 104.13037109 88.15380859 C104.1249285 94.40961472 104.12669117 100.66538826 104.1321975 106.9211936 C104.13727434 112.9285105 104.13674708 118.9358114 104.13381577 124.94313049 C104.13314623 127.50452173 104.13397584 130.0659138 104.13629532 132.62730408 C104.13882027 136.20012653 104.13498346 139.77288543 104.12939453 143.34570312 C104.13141876 144.41587173 104.13344299 145.48604034 104.13552856 146.58863831 C104.13270874 147.55619553 104.12988892 148.52375275 104.12698364 149.52062988 C104.1264181 150.78937328 104.1264181 150.78937328 104.12584114 152.08374786 C104 154 104 154 103 155 C100.20006403 155.10103255 97.42531356 155.13970088 94.625 155.1328125 C93.78533691 155.13376923 92.94567383 155.13472595 92.08056641 155.13571167 C90.30175705 155.13639348 88.52294523 155.13453917 86.74414062 155.13037109 C84.01166224 155.12502283 81.27934824 155.13031605 78.546875 155.13671875 C76.8229163 155.13605797 75.09895771 155.13477681 73.375 155.1328125 C72.55209473 155.13483673 71.72918945 155.13686096 70.88134766 155.13894653 C65.11495054 155.11495054 65.11495054 155.11495054 64 154 C63.9113874 151.18859849 63.88470416 148.40120576 63.90234375 145.58984375 C63.90335083 144.84383911 63.90435791 144.09783447 63.90539551 143.32922363 C63.91064311 140.53196687 63.92460427 137.73473196 63.9375 134.9375 C63.958125 128.688125 63.97875 122.43875 64 116 C43.21 116 22.42 116 1 116 C1.03960346 128.46083695 1.03960346 128.46083695 1.09008789 140.92163086 C1.09300705 142.47770113 1.09555561 144.03377216 1.09765625 145.58984375 C1.10277222 146.40521606 1.10788818 147.22058838 1.11315918 148.06066895 C1.1134694 150.04080523 1.06238096 152.02084654 1 154 C0.67 154.33 0.34 154.66 0 155 C-12.54 155 -25.08 155 -38 155 C-38 116.39 -38 77.78 -38 38 C-25.46 38 -12.92 38 0 38 C0 25.46 0 12.92 0 0 Z M1 1 C1 13.21 1 25.42 1 38 C21.79 38 42.58 38 64 38 C64 25.79 64 13.58 64 1 C43.21 1 22.42 1 1 1 Z M-37 39 C-37 76.95 -37 114.9 -37 154 C-24.79 154 -12.58 154 0 154 C0 141.13 0 128.26 0 115 C32.175 115.495 32.175 115.495 65 116 C65.33 128.21 65.66 140.42 66 153 C77.88 153 89.76 153 102 153 C102 115.38 102 77.76 102 39 C89.79 39 77.58 39 65 39 C65 51.87 65 64.74 65 78 C43.55 78 22.1 78 0 78 C0 65.13 0 52.26 0 39 C-12.21 39 -24.42 39 -37 39 Z M1 39 C1 51.54 1 64.08 1 77 C21.79 77 42.58 77 64 77 C64 64.46 64 51.92 64 39 C43.21 39 22.42 39 1 39 Z " fill="#818182" transform="translate(190,179)"/>
<path d="M0 0 C17.49 0 34.98 0 53 0 C53 5.94 53 11.88 53 18 C35.51 18 18.02 18 0 18 C0 12.06 0 6.12 0 0 Z " fill="#070809" transform="translate(1233,217)"/>
<path d="M0 0 C13.2 0 26.4 0 40 0 C40 6.27 40 12.54 40 19 C26.8 19 13.6 19 0 19 C0 12.73 0 6.46 0 0 Z " fill="#101012" transform="translate(1507,314)"/>
<path d="M0 0 C37.95 0 75.9 0 115 0 C115 12.54 115 25.08 115 38 C127.54 38 140.08 38 153 38 C153 51.2 153 64.4 153 78 C140.46 78 127.92 78 115 78 C115 90.21 115 102.42 115 115 C127.21 115 139.42 115 152 115 C152 115.33 152 115.66 152 116 C139.79 116 127.58 116 115 116 C115 128.54 115 141.08 115 154 C127.21 154 139.42 154 152 154 C152 154.33 152 154.66 152 155 C139.46 155 126.92 155 114 155 C114 142.13 114 129.26 114 116 C88.92 116 63.84 116 38 116 C38 115.67 38 115.34 38 115 C63.08 115 88.16 115 114 115 C114 102.79 114 90.58 114 78 C88.59 78 63.18 78 37 78 C37 64.8 37 51.6 37 38 C62.41 38 87.82 38 114 38 C114 25.79 114 13.58 114 1 C76.38 1 38.76 1 0 1 C0 0.67 0 0.34 0 0 Z M38 39 C38 51.54 38 64.08 38 77 C63.08 77 88.16 77 114 77 C114 64.46 114 51.92 114 39 C88.92 39 63.84 39 38 39 Z M115 39 C115 51.54 115 64.08 115 77 C127.21 77 139.42 77 152 77 C152 64.46 152 51.92 152 39 C139.79 39 127.58 39 115 39 Z " fill="#8F9091" transform="translate(334,179)"/>
<path d="M0 0 C13.2 0 26.4 0 40 0 C40 5.94 40 11.88 40 18 C26.8 18 13.6 18 0 18 C0 12.06 0 6.12 0 0 Z " fill="#080809" transform="translate(1408,217)"/>
<path d="M0 0 C12.21 0 24.42 0 37 0 C37 6.27 37 12.54 37 19 C24.79 19 12.58 19 0 19 C0 12.73 0 6.46 0 0 Z " fill="#0F1113" transform="translate(956,314)"/>
<path d="M0 0 C5.94 0 11.88 0 18 0 C18 12.21 18 24.42 18 37 C12.06 37 6.12 37 0 37 C0 24.79 0 12.58 0 0 Z " fill="#0B0B0D" transform="translate(1175,296)"/>
<path d="M0 0 C1.18682625 0.00539291 1.18682625 0.00539291 2.39762878 0.01089478 C3.22682831 0.01074875 4.05602783 0.01060272 4.91035461 0.01045227 C7.664521 0.01115166 10.41862063 0.01894523 13.17277527 0.02676392 C15.07706668 0.028628 16.98135857 0.03005195 18.88565063 0.03105164 C23.90804865 0.03487754 28.93041794 0.04470843 33.95280457 0.05575562 C39.07365022 0.06596819 44.1945005 0.07054892 49.31535339 0.07559204 C59.37070459 0.08633064 69.42603442 0.10340792 79.48136902 0.12442017 C79.48136902 0.78442017 79.48136902 1.44442017 79.48136902 2.12442017 C51.76136902 2.12442017 24.04136902 2.12442017 -4.51863098 2.12442017 C-4.51863098 52.61442017 -4.51863098 103.10442017 -4.51863098 155.12442017 C1.42136902 155.12442017 7.36136902 155.12442017 13.48136902 155.12442017 C13.48136902 129.71442017 13.48136902 104.30442017 13.48136902 78.12442017 C13.81136902 78.12442017 14.14136902 78.12442017 14.48136902 78.12442017 C14.48136902 103.86442017 14.48136902 129.60442017 14.48136902 156.12442017 C7.88136902 156.12442017 1.28136902 156.12442017 -5.51863098 156.12442017 C-7.31959928 154.32345186 -6.64480712 151.59201039 -6.64561462 149.16445923 C-6.64843445 147.86875 -6.65125427 146.57304077 -6.65415955 145.23806763 C-6.65221495 143.78872667 -6.65016676 142.33938585 -6.64802551 140.89004517 C-6.64937949 139.37429767 -6.65115941 137.8585505 -6.65333557 136.34280396 C-6.6579103 132.21482035 -6.65612019 128.08686163 -6.65295649 123.95887756 C-6.65043308 119.64849783 -6.65277037 115.33812029 -6.65434265 111.02774048 C-6.65616441 103.78782771 -6.65375788 96.54792514 -6.64900208 89.30801392 C-6.64355944 80.92547922 -6.6453221 72.54296883 -6.65082848 64.16043472 C-6.65535944 56.97659216 -6.65601024 49.79275695 -6.65338981 42.60891342 C-6.65182694 38.31252392 -6.65163353 34.01614586 -6.6549263 29.71975708 C-6.65780477 25.681512 -6.65582977 21.64329842 -6.65003204 17.60505676 C-6.64870432 16.11869865 -6.64909878 14.63233792 -6.65129471 13.14598083 C-6.65400568 11.12544852 -6.65001186 9.10491045 -6.64561462 7.0843811 C-6.6452376 5.95095276 -6.64486057 4.81752441 -6.64447212 3.64974976 C-6.41251483 -1.00507618 -4.09307613 0.00785205 0 0 Z " fill="#7E7F81" transform="translate(1094.5186309814453,177.87557983398438)"/>
<path d="M0 0 C0.66 0 1.32 0 2 0 C2.02332977 14.97686306 2.04097956 29.95372472 2.05181217 44.93060207 C2.05697496 51.88416081 2.06401734 58.83770827 2.07543945 65.79125977 C2.08644694 72.49557209 2.09227621 79.19987025 2.09487724 85.90419197 C2.09673202 88.46837613 2.10035364 91.03255962 2.10573006 93.59673882 C2.11293659 97.17445158 2.11399111 100.75211519 2.11352539 104.32983398 C2.11712067 105.40157364 2.12071594 106.47331329 2.12442017 107.57752991 C2.1230455 108.54653229 2.12167084 109.51553467 2.12025452 110.51390076 C2.12117631 111.36102851 2.1220981 112.20815626 2.12304783 113.08095455 C2 115 2 115 1 116 C-1.79993597 116.10103255 -4.57468644 116.13970088 -7.375 116.1328125 C-8.21466309 116.13376923 -9.05432617 116.13472595 -9.91943359 116.13571167 C-11.69824295 116.13639348 -13.47705477 116.13453917 -15.25585938 116.13037109 C-17.98833776 116.12502283 -20.72065176 116.13031605 -23.453125 116.13671875 C-25.1770837 116.13605797 -26.90104229 116.13477681 -28.625 116.1328125 C-29.44790527 116.13483673 -30.27081055 116.13686096 -31.11865234 116.13894653 C-36.88504946 116.11495054 -36.88504946 116.11495054 -38 115 C-38.0886126 112.18859849 -38.11529584 109.40120576 -38.09765625 106.58984375 C-38.09664917 105.84383911 -38.09564209 105.09783447 -38.09460449 104.32922363 C-38.08935689 101.53196687 -38.07539573 98.73473196 -38.0625 95.9375 C-38.0315625 86.5634375 -38.0315625 86.5634375 -38 77 C-58.79 77 -79.58 77 -101 77 C-101 89.54 -101 102.08 -101 115 C-101.33 115 -101.66 115 -102 115 C-102 102.13 -102 89.26 -102 76 C-85.8183237 75.95989119 -85.8183237 75.95989119 -78.94335938 75.95117188 C-74.24437334 75.94518415 -69.54540672 75.93808575 -64.84643555 75.92456055 C-61.05985743 75.9137292 -57.2733001 75.90772264 -53.48670769 75.90512276 C-52.03895681 75.90326895 -50.59120712 75.89964919 -49.14346504 75.89426994 C-47.12242865 75.88705633 -45.10137152 75.88659192 -43.08032227 75.88647461 C-41.35157616 75.88314369 -41.35157616 75.88314369 -39.58790588 75.87974548 C-37 76 -37 76 -36 77 C-35.91141354 79.73894085 -35.88476521 82.4525327 -35.90234375 85.19140625 C-35.9037587 86.01124496 -35.90517365 86.83108368 -35.90663147 87.67576599 C-35.91224711 90.30471382 -35.92480221 92.93357773 -35.9375 95.5625 C-35.94251299 97.34049357 -35.94707624 99.11848846 -35.95117188 100.89648438 C-35.96137248 105.26438158 -35.98094468 109.6320964 -36 114 C-24.12 114 -12.24 114 0 114 C0 76.38 0 38.76 0 0 Z " fill="#707071" transform="translate(292,218)"/>
<path d="M0 0 C0.66 0 1.32 0 2 0 C2 31.68 2 63.36 2 96 C7.94 96 13.88 96 20 96 C20 64.32 20 32.64 20 0 C20.33 0 20.66 0 21 0 C21 31.68 21 63.36 21 96 C32.88 96 44.76 96 57 96 C57 89.73 57 83.46 57 77 C57.33 77 57.66 77 58 77 C58 83.6 58 90.2 58 97 C45.79 97 33.58 97 21 97 C21 103.27 21 109.54 21 116 C20.67 116 20.34 116 20 116 C20 109.73 20 103.46 20 97 C13.4 97 6.8 97 0 97 C0 64.99 0 32.98 0 0 Z " fill="#8F8E8F" transform="translate(935,217)"/>
<path d="M0 0 C6.27 0 12.54 0 19 0 C19 6.27 19 12.54 19 19 C12.73 19 6.46 19 0 19 C0 12.73 0 6.46 0 0 Z " fill="#0F0F0F" transform="translate(1155,276)"/>
<path d="M0 0 C6.6 0 13.2 0 20 0 C20 32.34 20 64.68 20 98 C13.4 98 6.8 98 0 98 C0 65.66 0 33.32 0 0 Z M1 1 C1 32.35 1 63.7 1 96 C6.61 96 12.22 96 18 96 C18.33 64.65 18.66 33.3 19 1 C13.06 1 7.12 1 1 1 Z " fill="#4F5052" transform="translate(1449,236)"/>
<path d="M0 0 C37.95 0 75.9 0 115 0 C115 12.54 115 25.08 115 38 C127.21 38 139.42 38 152 38 C152 38.33 152 38.66 152 39 C139.79 39 127.58 39 115 39 C115 51.54 115 64.08 115 77 C114.67 77 114.34 77 114 77 C114 64.46 114 51.92 114 39 C88.92 39 63.84 39 38 39 C38 51.87 38 64.74 38 78 C37.67 78 37.34 78 37 78 C37 64.8 37 51.6 37 38 C62.41 38 87.82 38 114 38 C114 25.79 114 13.58 114 1 C76.38 1 38.76 1 0 1 C0 0.67 0 0.34 0 0 Z " fill="#818081" transform="translate(334,179)"/>
<path d="M0 0 C6.27 0 12.54 0 19 0 C19 5.94 19 11.88 19 18 C12.73 18 6.46 18 0 18 C0 12.06 0 6.12 0 0 Z " fill="#0D0D0E" transform="translate(631,179)"/>
<path d="M0 0 C5.94 0 11.88 0 18 0 C18 5.61 18 11.22 18 17 C12.06 17 6.12 17 0 17 C0 11.39 0 5.78 0 0 Z " fill="#090808" transform="translate(651,199)"/>
<path d="M0 0 C6.93 0 13.86 0 21 0 C21 6.27 21 12.54 21 19 C26.87883003 18.96042231 26.87883003 18.96042231 32.75756836 18.90991211 C33.48596924 18.90741455 34.21437012 18.90491699 34.96484375 18.90234375 C35.7137085 18.89710693 36.46257324 18.89187012 37.23413086 18.88647461 C39 19 39 19 40 20 C40.09376053 21.81055025 40.1174411 23.62477201 40.11352539 25.43774414 C40.11344986 26.59887222 40.11337433 27.76000031 40.11329651 28.95631409 C40.10813522 30.219832 40.10297394 31.48334991 40.09765625 32.78515625 C40.0962413 34.07111191 40.09482635 35.35706757 40.09336853 36.68199158 C40.08954418 40.10643443 40.07971462 43.53083509 40.06866455 46.95526123 C40.05844864 50.44738189 40.05387053 53.93950934 40.04882812 57.43164062 C40.03809227 64.28777778 40.02101684 71.14388687 40 78 C39.67 78 39.34 78 39 78 C39 65.13 39 52.26 39 39 C32.73 39 26.46 39 20 39 C19 38 19 38 18.90234375 34.18359375 C18.90808862 32.60152953 18.92110407 31.01948969 18.9375 29.4375 C18.958125 26.653125 18.97875 23.86875 19 21 C13.06 21 7.12 21 1 21 C1 26.94 1 32.88 1 39 C0.67 39 0.34 39 0 39 C0 32.73 0 26.46 0 20 C-6.27 20 -12.54 20 -19 20 C-19 19.67 -19 19.34 -19 19 C-12.73 19 -6.46 19 0 19 C0 12.73 0 6.46 0 0 Z M1 1 C1 6.94 1 12.88 1 19 C7.27 19 13.54 19 20 19 C20 13.06 20 7.12 20 1 C13.73 1 7.46 1 1 1 Z M21 21 C21 26.61 21 32.22 21 38 C26.94 38 32.88 38 39 38 C39 32.39 39 26.78 39 21 C33.06 21 27.12 21 21 21 Z " fill="#7E7D7D" transform="translate(630,178)"/>
<path d="M0 0 C5.61 0 11.22 0 17 0 C17 25.08 17 50.16 17 76 C11.06 76 5.12 76 -1 76 C-0.505 75.01 -0.505 75.01 0 74 C4.95 74 9.9 74 15 74 C15 49.91 15 25.82 15 1 C7.2411612 1.06550982 7.2411612 1.06550982 0 3 C0 2.01 0 1.02 0 0 Z " fill="#010101" transform="translate(824,237)"/>
<path d="M0 0 C11.88 0 23.76 0 36 0 C36 5.61 36 11.22 36 17 C35.34 17 34.68 17 34 17 C34 11.72 34 6.44 34 1 C23.44 1 12.88 1 2 1 C2 5.62 2 10.24 2 15 C9.92 15 17.84 15 26 15 C26 15.33 26 15.66 26 16 C17.42 16.33 8.84 16.66 0 17 C0 11.39 0 5.78 0 0 Z " fill="#020304" transform="translate(956,315)"/>
<path d="M0 0 C5.61 0 11.22 0 17 0 C17 9.24 17 18.48 17 28 C15.07129883 24.14259767 14.75716624 22.88370357 14.8046875 18.796875 C14.81113281 17.8171875 14.81757812 16.8375 14.82421875 15.828125 C14.84097656 14.81234375 14.85773437 13.7965625 14.875 12.75 C14.88402344 11.71875 14.89304687 10.6875 14.90234375 9.625 C14.92587862 7.08323384 14.96174869 4.54158728 15 2 C10.71 2 6.42 2 2 2 C2.01160156 3.08539063 2.02320313 4.17078125 2.03515625 5.2890625 C2.04454138 6.73437327 2.05364081 8.17968591 2.0625 9.625 C2.07087891 10.33785156 2.07925781 11.05070313 2.08789062 11.78515625 C2.10710296 15.97344438 1.8267327 19.8728462 1 24 C0.67 24 0.34 24 0 24 C0 16.08 0 8.16 0 0 Z " fill="#030303" transform="translate(709,180)"/>
<path d="M0 0 C3.2175 -0.04125 6.435 -0.0825 9.75 -0.125 C11.26158691 -0.15231201 11.26158691 -0.15231201 12.80371094 -0.18017578 C13.60583008 -0.1851709 14.40794922 -0.19016602 15.234375 -0.1953125 C16.05131836 -0.20578613 16.86826172 -0.21625977 17.70996094 -0.22705078 C20 0 20 0 24 2 C13.605 2.495 13.605 2.495 3 3 C2.67 8.61 2.34 14.22 2 20 C1.67 20 1.34 20 1 20 C0.67 13.4 0.34 6.8 0 0 Z " fill="#010202" transform="translate(1090,180)"/>
<path d="M0 0 C5.61 0 11.22 0 17 0 C16.67 0.99 16.34 1.98 16 3 C15.34 2.67 14.68 2.34 14 2 C11.95501575 2.08780403 9.91255052 2.24241538 7.875 2.4375 C6.77929688 2.53933594 5.68359375 2.64117187 4.5546875 2.74609375 C3.29011719 2.87177734 3.29011719 2.87177734 2 3 C1.67 5.31 1.34 7.62 1 10 C0.67 10 0.34 10 0 10 C0 6.7 0 3.4 0 0 Z " fill="#010404" transform="translate(612,199)"/>
<path d="M0 0 C0.33 0 0.66 0 1 0 C1 1.65 1 3.3 1 5 C-5.43311296 5.09507063 -11.65758005 5.15316726 -18 4 C-18 3.67 -18 3.34 -18 3 C-16.86820313 2.95101563 -15.73640625 2.90203125 -14.5703125 2.8515625 C-13.08851661 2.77653486 -11.606747 2.70098703 -10.125 2.625 C-9.37863281 2.5940625 -8.63226562 2.563125 -7.86328125 2.53125 C-3.46526812 2.44356169 -3.46526812 2.44356169 0 0 Z " fill="#020303" transform="translate(915,327)"/>
<path d="M0 0 C10.23 0.33 20.46 0.66 31 1 C31 1.33 31 1.66 31 2 C15.16 2.495 15.16 2.495 -1 3 C-0.67 2.01 -0.34 1.02 0 0 Z " fill="#010102" transform="translate(450,329)"/>
<path d="M0 0 C0.99 0.495 0.99 0.495 2 1 C2.40729228 3.32156597 2.74438677 5.6568787 3 8 C2.01 8.33 1.02 8.66 0 9 C0 6.03 0 3.06 0 0 Z " fill="#010101" transform="translate(709,323)"/>
</svg>
